<svg width="56" height="56" viewBox="0 0 56 56" fill="none" xmlns="http://www.w3.org/2000/svg">
<path fill-rule="evenodd" clip-rule="evenodd" d="M28.4396 20.9951C29.1079 25.0632 31.1751 28.5968 34.3743 31.1936C38.5839 34.6105 45.2755 37.7796 52.1949 42.0926C57.071 33.7029 57.4445 23.0085 52.2448 14.0022C47.1173 5.12114 37.8584 0.112662 28.2973 0.00195312C28.1936 3.464 28.0451 18.5937 28.4396 20.9951Z" fill="url(#paint0_linear_237_159)"/>
<path fill-rule="evenodd" clip-rule="evenodd" d="M21.7136 31.1217C24.9026 28.5089 26.9292 24.9518 27.5784 20.8828C28.4328 15.5288 27.8315 8.14905 28.1069 0.000116788C18.4032 -0.0279279 8.95487 4.99586 3.75513 14.0021C-1.3723 22.8832 -1.08034 33.4059 3.60431 41.7415C6.65437 40.1002 19.8313 32.664 21.7136 31.1217Z" fill="url(#paint1_linear_237_159)"/>
<path fill-rule="evenodd" clip-rule="evenodd" d="M33.8477 31.883C29.9906 30.4276 25.8967 30.4511 22.0483 31.9233C16.9844 33.8605 10.8941 38.0711 3.69922 41.907C8.52679 50.3246 17.6016 55.9954 28.0011 55.9954C38.2561 55.9954 47.223 50.4811 52.0994 42.2563C49.153 40.4355 36.1246 32.742 33.8477 31.883Z" fill="url(#paint2_linear_237_159)"/>
<path fill-rule="evenodd" clip-rule="evenodd" d="M42.8426 36.7798C39.8392 41.8465 34.3166 45.244 27.9995 45.244C21.5971 45.244 16.0098 41.7547 13.0352 36.5741C16.3401 34.6441 19.3401 32.9592 22.0467 31.9238C25.8952 30.4516 29.989 30.4281 33.8461 31.8834C34.9964 32.3174 38.8906 34.4957 42.8426 36.7798Z" fill="#06969E"/>
<path fill-rule="evenodd" clip-rule="evenodd" d="M28.1817 10.7583C37.6213 10.8559 45.2436 18.5371 45.2436 27.9998C45.2436 31.1616 44.392 34.1242 42.9065 36.6719C39.5829 34.7749 36.6241 33.0195 34.3743 31.1934C31.175 28.5966 29.1078 25.0629 28.4396 20.9948C28.2404 19.7819 28.1797 15.3219 28.1817 10.7583Z" fill="#01CF85"/>
<path fill-rule="evenodd" clip-rule="evenodd" d="M28.0035 10.7559C28.0226 10.7559 28.0414 10.7565 28.0605 10.7566C28.0794 14.5824 28.0385 18.0217 27.582 20.8825C26.9327 24.9515 24.9061 28.5087 21.7172 31.1214C20.7663 31.9006 16.9325 34.1841 12.9782 36.4647C11.5664 33.964 10.7598 31.0762 10.7598 27.9997C10.7598 18.4762 18.48 10.7559 28.0035 10.7559Z" fill="#99EA48"/>
<defs>
<linearGradient id="paint0_linear_237_159" x1="49.291" y1="40.0113" x2="34.8905" y2="2.08331" gradientUnits="userSpaceOnUse">
<stop stop-color="#44FFAA" stop-opacity="0.737255"/>
<stop offset="0.5" stop-color="#01CF85"/>
<stop offset="1" stop-color="#008B59"/>
</linearGradient>
<linearGradient id="paint1_linear_237_159" x1="27.6606" y1="11.3564" x2="0.446149" y2="30.3849" gradientUnits="userSpaceOnUse">
<stop stop-color="#90EE24"/>
<stop offset="0.548077" stop-color="#539C00"/>
<stop offset="1" stop-color="#4C8708"/>
</linearGradient>
<linearGradient id="paint2_linear_237_159" x1="46.5027" y1="41.3171" x2="9.07817" y2="41.9651" gradientUnits="userSpaceOnUse">
<stop stop-color="#004E52"/>
<stop offset="0.5" stop-color="#02A2AA"/>
<stop offset="1" stop-color="#26E6F0"/>
</linearGradient>
</defs>
</svg>
