<svg width="24" height="24" viewBox="0 0 24 24" fill="none" xmlns="http://www.w3.org/2000/svg">
<path d="M4.27073 5H19.7291C21.1874 5 21.9224 5.68833 21.9224 7.08833V16.9117C21.9224 18.3 21.1874 19 19.7291 19H4.27073C2.81239 19 2.07739 18.3 2.07739 16.9117V7.08833C2.07739 5.68833 2.81239 5 4.27073 5ZM11.9941 15.0333L19.8574 8.58167C20.1374 8.34833 20.3591 7.81167 20.0091 7.33333C19.6707 6.855 19.0524 6.84333 18.6441 7.135L11.9941 11.6383L5.35573 7.135C4.94739 6.84333 4.32906 6.855 3.99073 7.33333C3.64073 7.81167 3.86239 8.34833 4.14239 8.58167L11.9941 15.0333Z" fill="#192031"/>
</svg>
